<svg id="visual" viewBox="0 0 900 100" width="900" height="100" xmlns="http://www.w3.org/2000/svg" xmlns:xlink="http://www.w3.org/1999/xlink" version="1.1"><rect x="0" y="0" width="900" height="100" fill="#0A1045"></rect><path d="M0 47L11.5 46.5C23 46 46 45 69 44.3C92 43.7 115 43.3 138.2 44.3C161.3 45.3 184.7 47.7 207.8 51.2C231 54.7 254 59.3 277 59.3C300 59.3 323 54.7 346 49.5C369 44.3 392 38.7 415.2 37C438.3 35.3 461.7 37.7 484.8 41.5C508 45.3 531 50.7 554 55.7C577 60.7 600 65.3 623 67.5C646 69.7 669 69.3 692.2 69.8C715.3 70.3 738.7 71.7 761.8 68.8C785 66 808 59 831 55.2C854 51.3 877 50.7 888.5 50.3L900 50L900 101L888.5 101C877 101 854 101 831 101C808 101 785 101 761.8 101C738.7 101 715.3 101 692.2 101C669 101 646 101 623 101C600 101 577 101 554 101C531 101 508 101 484.8 101C461.7 101 438.3 101 415.2 101C392 101 369 101 346 101C323 101 300 101 277 101C254 101 231 101 207.8 101C184.7 101 161.3 101 138.2 101C115 101 92 101 69 101C46 101 23 101 11.5 101L0 101Z" fill="#669CFF" stroke-linecap="round" stroke-linejoin="miter"></path></svg>