<?xml version="1.0" encoding="UTF-8"?>
<svg id="Livello_2" data-name="Livello 2" xmlns="http://www.w3.org/2000/svg" viewBox="0 0 999.37 730">
  <defs>
    <style>
      .cls-1 {
        font-family: Rubik-Regular, Rubik;
        font-size: 128.63px;
        font-variation-settings: 'wght' 400;
        letter-spacing: .02em;
      }

      .cls-1, .cls-2 {
        fill: #0a1045;
      }
    </style>
  </defs>
  <g id="Livello_1-2" data-name="Livello 1">
    <g>
      <path class="cls-2" d="m999.37,194.93h-72.23c-11.23-37.6-30.67-67.11-58.38-88.56-27.71-21.42-59.05-32.16-94-32.16-25.33,0-49.33,5.79-72.01,17.37-2.75,1.36-5.44,2.84-8.14,4.4-11.92,6.93-22.73,15.26-32.36,25.06-.02,0-.02.02-.05.05-3.96,3.98-7.69,8.19-11.21,12.62,0,.02-.02.02-.02.02-30.28,31.79-69.41,55.04-113.42,65.87-18.06,4.48-36.93,6.85-56.38,6.85-26,0-50.98-4.23-74.36-12.02-41.46-13.85-77.75-38.94-105.26-71.69-1.71-2.28-3.49-4.48-5.37-6.6-8.66-9.94-18.68-18.16-30.03-24.61-2.99-1.71-5.99-3.27-9.05-4.68-16.5-7.77-33.91-11.65-52.29-11.65-.22,0-.47,0-.69.02-21.52.1-41.73,5.54-60.65,16.3-19.15,10.88-34.63,26.57-46.51,47-11.87,20.46-17.81,45.86-17.81,76.19s5.94,54.77,17.81,75.2c11.87,20.46,27.36,35.97,46.51,46.51,19.12,10.56,39.58,15.83,61.35,15.83s42.05-5.27,60.85-15.83c18.8-10.54,34.14-26.05,46.01-46.51,10.91-18.78,16.8-41.46,17.69-68.05.07-2.35.12-4.72.12-7.15,0-16.87-1.88-32.31-5.62-46.28,24.74,19.86,53.31,35.13,84.38,44.53.15,2.94.25,5.91.32,8.91-.07,2.77-.17,5.52-.32,8.24-1.95,37.67-11.23,70.48-27.8,98.4-18.8,31.66-43.71,55.91-74.71,72.73-31.02,16.82-64.66,25.23-100.93,25.23-35.62,1.98-63.18,5.62-82.62,10.88-19.47,5.29-29.19,16.5-29.19,33.64,0,9.89,3.78,17.98,11.38,24.24,7.57,6.28,18.95,9.4,34.14,9.4h102.91c34.29,0,65.63,4.77,94,14.35,28.35,9.55,51.11,25.73,68.27,48.48,17.14,22.76,25.73,53.93,25.73,93.51v41.56h-79.16v-21.77c0-34.98-9.08-60.36-27.21-76.19-18.16-15.83-45.37-23.75-81.63-23.75h-98.95c-21.77,0-40.74-1.83-56.89-5.44-16.18-3.64-29.54-9.08-40.07-16.33-10.56-7.27-18.48-16.18-23.75-26.72-5.29-10.56-7.92-22.44-7.92-35.62,0-25.06,7.57-44.03,22.76-56.89,15.16-12.86,33.96-20.93,56.4-24.24,13.23-1.95,26.12-2.75,38.69-2.37-8.91-3.34-17.69-7.32-26.32-11.97-31.34-16.82-56.75-41.06-76.19-72.73-1.9-3.09-3.74-6.26-5.44-9.5C9.87,293.03,2.08,263.15.37,229.34c-.25-4.8-.37-9.67-.37-14.62,0-33.3,5.42-63.13,16.28-89.5,3.56-8.63,7.69-16.9,12.42-24.79,1.53-2.57,3.12-5.1,4.75-7.57,18.43-28.35,41.93-50.56,70.45-66.64C134.89,8.76,168.53,0,204.82,0c9.08,0,17.81.54,26.25,1.63,1.98.25,3.96.52,5.91.84,4.06.67,8.04,1.46,11.92,2.35,1.34.32,2.65.64,3.96.99,18.4,4.53,36.04,11.73,52.89,21.64,18.82,11.08,35.42,25.13,49.75,42.15.07.07.12.17.2.25.79.99,1.58,1.98,2.4,2.97.32.42.69.84,1.06,1.26,29.09,34.56,72.68,56.52,121.41,56.52,43.83,0,83.51-17.76,112.23-46.51.07-.05.12-.12.17-.17,3.51-3.51,6.85-7.22,10.02-11.06.02-.02.05-.02.05-.05,15.63-16.18,33.3-29.91,52.99-41.16,18.33-10.46,37.35-18.35,56.99-23.65,5.94-1.58,11.95-2.94,18.03-4.06,14.22-2.65,28.79-3.96,43.71-3.96,37.6,0,72.38,7.92,104.39,23.75,31.98,15.83,58.7,38.27,80.15,67.28,21.42,29.04,34.78,63.67,40.07,103.89Z"/>
      <path class="cls-2" d="m928.13,318.61c-11.23,38.27-29.54,68.13-54.92,89.55-25.4,21.45-58.23,32.16-98.45,32.16-29.04,0-55.91-7.07-80.64-21.27-24.74-14.17-44.7-34.95-59.86-62.34-15.19-27.36-22.76-60.18-22.76-98.45,0-30.03,4.5-56.6,13.56-79.75-26.79,18.73-57.36,32.36-90.34,39.5-1.58,12.91-2.37,26.34-2.37,40.25,0,52.79,11.38,98.45,34.14,137.04,22.76,38.59,52.59,68.13,89.55,88.56,36.93,20.46,76.51,30.67,118.74,30.67,37.6,0,72.55-7.77,104.88-23.25,32.31-15.49,59.2-37.92,80.64-67.28,21.42-29.34,34.46-64.46,39.08-105.38h-71.24Zm-335.16-234.68c3.51-3.51,6.85-7.22,10.02-11.06-3.44,3.59-6.78,7.25-10.02,11.06Z"/>
      <text class="cls-1" transform="translate(530.75 670.06)"><tspan x="0" y="0">design.</tspan></text>
      <path class="cls-2" d="m408.65,229.61v.49h-.4c.15-2.72.25-5.47.32-8.24.05,2.57.07,5.15.07,7.74Z"/>
      <path class="cls-2" d="m301.57,122.74c-1.83-2.15-3.61-4.35-5.37-6.6,1.88,2.13,3.66,4.33,5.37,6.6Z"/>
      <path class="cls-2" d="m662.21,121.09c-3.59,4.33-7.32,8.56-11.21,12.62,3.51-4.43,7.25-8.63,11.21-12.62Z"/>
      <path class="cls-2" d="m602.99,72.87c-3.17,3.83-6.51,7.54-10.02,11.06,3.24-3.81,6.58-7.47,10.02-11.06Z"/>
      <path class="cls-2" d="m301.57,122.74c-1.83-2.15-3.61-4.35-5.37-6.6,1.88,2.13,3.66,4.33,5.37,6.6Z"/>
      <path class="cls-2" d="m662.21,121.09c-3.59,4.33-7.32,8.56-11.21,12.62,3.51-4.43,7.25-8.63,11.21-12.62Z"/>
      <path class="cls-2" d="m602.99,72.87c-3.17,3.83-6.51,7.54-10.02,11.06,3.24-3.81,6.58-7.47,10.02-11.06Z"/>
      <path class="cls-2" d="m602.99,72.87c-3.17,3.83-6.51,7.54-10.02,11.06,3.24-3.81,6.58-7.47,10.02-11.06Z"/>
    </g>
  </g>
</svg>