<svg xmlns="http://www.w3.org/2000/svg" viewBox="0 0 512.19 360.05"><defs><style>.cls-1{fill:#c8dbff;}</style></defs><g id="Livello_2" data-name="Livello 2"><g id="Livello_1-2" data-name="Livello 1"><path class="cls-1" d="M512.19,99.9h-37Q466.53,71,445.25,54.52A76.74,76.74,0,0,0,397.07,38a80.09,80.09,0,0,0-36.9,8.9c-1.41.7-2.79,1.46-4.17,2.26A78.44,78.44,0,0,0,339.41,62s0,0,0,0a76.72,76.72,0,0,0-5.74,6.46,0,0,0,0,1,0,0A119.87,119.87,0,0,1,275.5,102.3a120,120,0,0,1-28.89,3.51,120.38,120.38,0,0,1-38.11-6.16,120.26,120.26,0,0,1-53.94-36.74c-.88-1.17-1.79-2.3-2.75-3.39a59.08,59.08,0,0,0-15.4-12.61c-1.53-.88-3.06-1.68-4.64-2.4a62.12,62.12,0,0,0-26.8-6h-.35a62.45,62.45,0,0,0-31.09,8.36A63.89,63.89,0,0,0,49.7,71q-9.14,15.72-9.13,39,0,22.83,9.13,38.55a61.91,61.91,0,0,0,23.83,23.83A64.07,64.07,0,0,0,105,180.53a62.64,62.64,0,0,0,31.19-8.11q14.46-8.1,23.58-23.83,8.38-14.44,9.07-34.88c0-1.21.06-2.42.06-3.67A91.61,91.61,0,0,0,166,86.32a128.38,128.38,0,0,0,43.25,22.82c.07,1.51.12,3,.16,4.57s-.09,2.83-.16,4.22q-1.52,29-14.25,50.43a99,99,0,0,1-38.29,37.28A106.81,106.81,0,0,1,105,218.57q-27.37,1.52-42.34,5.58t-15,17.24a15.36,15.36,0,0,0,5.83,12.42q5.82,4.83,17.5,4.82h52.74q26.36,0,48.17,7.35t35,24.85q13.18,17.51,13.19,47.92v21.3H179.52V348.9q0-26.89-14-39t-41.83-12.17H73a134.84,134.84,0,0,1-29.15-2.79q-12.45-2.81-20.54-8.37a36.16,36.16,0,0,1-12.17-13.69A40.08,40.08,0,0,1,7.1,254.57q0-19.26,11.66-29.16T47.67,213a113,113,0,0,1,19.83-1.22A109,109,0,0,1,54,205.64a101.87,101.87,0,0,1-39-37.28q-1.47-2.37-2.79-4.87-10.66-20-12-45.95Q0,113.85,0,110,0,84.45,8.34,64.18a95.47,95.47,0,0,1,6.37-12.71q1.17-2,2.43-3.88A103.56,103.56,0,0,1,105,0a104.43,104.43,0,0,1,13.45.84c1,.12,2,.26,3,.43,2.08.34,4.12.75,6.12,1.2.68.17,1.35.33,2,.51A100.48,100.48,0,0,1,156.7,14.07a98.15,98.15,0,0,1,25.49,21.61,1.31,1.31,0,0,1,.11.12c.4.51.81,1,1.23,1.52.16.22.35.43.54.65a81.13,81.13,0,0,0,62.22,29A81,81,0,0,0,303.81,43.1a.36.36,0,0,0,.09-.08c1.8-1.8,3.51-3.71,5.14-5.67,0,0,0,0,0,0a121.52,121.52,0,0,1,27.16-21.09A123.18,123.18,0,0,1,365.43,4.11c3-.81,6.12-1.51,9.24-2.08a121.91,121.91,0,0,1,22.4-2,119,119,0,0,1,53.5,12.17,112.39,112.39,0,0,1,41.08,34.48Q508.12,69,512.19,99.9Z"/><path class="cls-1" d="M475.68,163.29q-8.64,29.42-28.15,45.9t-50.46,16.48a81.56,81.56,0,0,1-41.33-10.91q-19-10.89-30.68-31.94T313.4,132.36q0-23.09,7-40.88a128.07,128.07,0,0,1-46.3,20.25,167.86,167.86,0,0,0-1.22,20.63q0,40.57,17.49,70.23T336.22,248a126.35,126.35,0,0,0,114.61,3.8,108.64,108.64,0,0,0,41.33-34.48q16.47-22.56,20-54ZM303.9,43c1.8-1.8,3.51-3.71,5.14-5.67C307.27,39.19,305.56,41.06,303.9,43Z"/><path class="cls-1" d="M289.42,344.07a14.21,14.21,0,0,1-6.26-1.28,11.81,11.81,0,0,1-4.32-3.5,15.28,15.28,0,0,1-2.51-5,24.76,24.76,0,0,1-.95-6c-.05-.7-.07-1.36-.07-2s0-1.27.07-2a24.58,24.58,0,0,1,.95-5.94,15.63,15.63,0,0,1,2.51-5.07,11.69,11.69,0,0,1,4.32-3.53,14.07,14.07,0,0,1,6.26-1.29,12.92,12.92,0,0,1,10.68,4.82V298.12a1.43,1.43,0,0,1,.43-1.08,1.45,1.45,0,0,1,1.08-.43h3.17a1.47,1.47,0,0,1,1.52,1.51V341.9a1.47,1.47,0,0,1-1.52,1.51h-3a1.45,1.45,0,0,1-1.12-.43,1.52,1.52,0,0,1-.39-1.08v-2.77a13.26,13.26,0,0,1-4.29,3.52A13.74,13.74,0,0,1,289.42,344.07Zm1.38-5.34a8.47,8.47,0,0,0,5.28-1.51,9.35,9.35,0,0,0,3-3.86,13.2,13.2,0,0,0,1.06-4.78c0-.7.07-1.55.07-2.54s0-1.83-.07-2.54A11.8,11.8,0,0,0,299,319a9.17,9.17,0,0,0-3-3.7,10.15,10.15,0,0,0-10.52,0,8.12,8.12,0,0,0-2.83,3.89,17.9,17.9,0,0,0-1,5.17c0,1.28,0,2.55,0,3.82a18,18,0,0,0,1,5.18,8.12,8.12,0,0,0,2.83,3.89A8.7,8.7,0,0,0,290.8,338.73Z"/><path class="cls-1" d="M331.28,344.07q-6.79,0-10.81-4.18t-4.42-11.44c0-.57-.06-1.31-.06-2.21s0-1.64.06-2.21a19.28,19.28,0,0,1,2.18-8.21,13.51,13.51,0,0,1,5.24-5.43,15.35,15.35,0,0,1,7.81-1.92,15.73,15.73,0,0,1,8.41,2.11,13.46,13.46,0,0,1,5.17,6,21.63,21.63,0,0,1,1.78,9.1v1.12a1.43,1.43,0,0,1-.43,1.12,1.56,1.56,0,0,1-1.09.4h-22.8v.59a13.69,13.69,0,0,0,1.18,5,9.38,9.38,0,0,0,3,3.79,7.79,7.79,0,0,0,4.75,1.45,9.6,9.6,0,0,0,4-.72,10.23,10.23,0,0,0,2.57-1.62,9.62,9.62,0,0,0,1.32-1.35,3.28,3.28,0,0,1,.92-1,2.47,2.47,0,0,1,1.05-.17h3.17a1.61,1.61,0,0,1,1.08.37,1.11,1.11,0,0,1,.37,1,5.21,5.21,0,0,1-1.06,2.41,12.73,12.73,0,0,1-2.83,2.8,16,16,0,0,1-4.48,2.27A18.78,18.78,0,0,1,331.28,344.07Zm-9-20.3h18.06v-.2a12.25,12.25,0,0,0-1.09-5.27,8.74,8.74,0,0,0-3.13-3.66,8.65,8.65,0,0,0-4.88-1.35,8.26,8.26,0,0,0-7.91,5,12.55,12.55,0,0,0-1.05,5.27Z"/><path class="cls-1" d="M367.93,344.07a19.4,19.4,0,0,1-6.33-.92,14.66,14.66,0,0,1-4.28-2.24,10.86,10.86,0,0,1-2.47-2.64,5.15,5.15,0,0,1-.89-2.11,1.17,1.17,0,0,1,.46-1.12,1.77,1.77,0,0,1,1.05-.4h2.9a1.72,1.72,0,0,1,.63.1,2.23,2.23,0,0,1,.63.57,26,26,0,0,0,1.91,1.84,8.53,8.53,0,0,0,2.6,1.52,11,11,0,0,0,3.86.59,10.74,10.74,0,0,0,5.54-1.29,4.13,4.13,0,0,0,2.17-3.79,3.76,3.76,0,0,0-.89-2.63,7.52,7.52,0,0,0-3.16-1.78,55,55,0,0,0-6.23-1.65,22.87,22.87,0,0,1-6.26-2.28,8.28,8.28,0,0,1-3.3-3.23,9,9,0,0,1-1-4.25,8.61,8.61,0,0,1,1.45-4.71,10.76,10.76,0,0,1,4.25-3.73,15.28,15.28,0,0,1,7-1.45,17.78,17.78,0,0,1,5.87.86,13.35,13.35,0,0,1,4,2.14,11,11,0,0,1,2.38,2.54,5,5,0,0,1,.85,2.11,1.22,1.22,0,0,1-.39,1.09,1.54,1.54,0,0,1-1.06.43h-2.76a1.34,1.34,0,0,1-.76-.2,3.51,3.51,0,0,1-.56-.46,16,16,0,0,0-1.55-1.72,7.07,7.07,0,0,0-2.31-1.41,10.21,10.21,0,0,0-3.73-.56,7.56,7.56,0,0,0-4.94,1.38,4.37,4.37,0,0,0-1.65,3.49,3.62,3.62,0,0,0,.73,2.24,6.09,6.09,0,0,0,2.77,1.79,49.24,49.24,0,0,0,6.06,1.71,22.52,22.52,0,0,1,6.86,2.31,9.15,9.15,0,0,1,3.56,3.36A9,9,0,0,1,382,334a8.71,8.71,0,0,1-1.61,5.08,10.85,10.85,0,0,1-4.75,3.66A19.61,19.61,0,0,1,367.93,344.07Z"/><path class="cls-1" d="M392.19,302.74a1.49,1.49,0,0,1-1.08-.43,1.47,1.47,0,0,1-.43-1.09v-3.56a1.47,1.47,0,0,1,.43-1.09,1.49,1.49,0,0,1,1.08-.43h4.16a1.47,1.47,0,0,1,1.51,1.52v3.56a1.47,1.47,0,0,1-1.51,1.52Zm.53,40.67a1.45,1.45,0,0,1-1.51-1.51V310.65a1.46,1.46,0,0,1,1.51-1.52h3.17a1.37,1.37,0,0,1,1.05.43,1.57,1.57,0,0,1,.4,1.09V341.9a1.53,1.53,0,0,1-.4,1.08,1.34,1.34,0,0,1-1.05.43Z"/><path class="cls-1" d="M422.72,357.92a19.41,19.41,0,0,1-7.35-1.19,13,13,0,0,1-4.49-2.87,11,11,0,0,1-2.3-3.36,8.78,8.78,0,0,1-.76-2.67,1.27,1.27,0,0,1,.43-1.12,1.55,1.55,0,0,1,1.09-.46h3.16a1.74,1.74,0,0,1,1,.26,2.1,2.1,0,0,1,.66,1.12,13.14,13.14,0,0,0,1.18,2.21,6.51,6.51,0,0,0,2.44,2.11,9.9,9.9,0,0,0,4.62.89,14.64,14.64,0,0,0,5.21-.82,6,6,0,0,0,3.19-2.9,12.39,12.39,0,0,0,1.09-5.71v-4.48a12.5,12.5,0,0,1-4.15,3.39,13.71,13.71,0,0,1-6.46,1.36,14.23,14.23,0,0,1-6.33-1.29,11.89,11.89,0,0,1-4.32-3.49,15.43,15.43,0,0,1-2.51-5,24.91,24.91,0,0,1-.95-5.93c-.05-1.23-.05-2.44,0-3.62a25.08,25.08,0,0,1,.95-5.94,15.63,15.63,0,0,1,2.51-5.07,11.69,11.69,0,0,1,4.32-3.53,14.23,14.23,0,0,1,6.33-1.29,13.13,13.13,0,0,1,6.56,1.49,14.31,14.31,0,0,1,4.25,3.59v-2.84a1.59,1.59,0,0,1,.43-1.12,1.44,1.44,0,0,1,1.09-.46h3a1.56,1.56,0,0,1,1.12.46,1.53,1.53,0,0,1,.46,1.12v32a19.54,19.54,0,0,1-1.48,7.84,11.41,11.41,0,0,1-4.88,5.41A18.11,18.11,0,0,1,422.72,357.92Zm-.13-19.52a8.59,8.59,0,0,0,5.3-1.51,9.08,9.08,0,0,0,3-3.83,12.92,12.92,0,0,0,1-4.68c0-.61.07-1.37.07-2.27s0-1.66-.07-2.28a13,13,0,0,0-1-4.68,9.05,9.05,0,0,0-3-3.82,10,10,0,0,0-10.58,0,8.12,8.12,0,0,0-2.83,3.89,17.9,17.9,0,0,0-1,5.17c-.05,1.14-.05,2.31,0,3.49a18,18,0,0,0,1,5.18,8.12,8.12,0,0,0,2.83,3.89A8.59,8.59,0,0,0,422.59,338.4Z"/><path class="cls-1" d="M451.06,343.41a1.47,1.47,0,0,1-1.51-1.51V310.65a1.47,1.47,0,0,1,1.51-1.52h3.1a1.51,1.51,0,0,1,1.09.43,1.47,1.47,0,0,1,.43,1.09v2.9a13.51,13.51,0,0,1,4.32-3.66,13.94,13.94,0,0,1,6.69-1.42,13.48,13.48,0,0,1,7.28,1.88,11.72,11.72,0,0,1,4.52,5.21,18.54,18.54,0,0,1,1.52,7.75V341.9a1.53,1.53,0,0,1-.4,1.08,1.35,1.35,0,0,1-1.05.43h-3.3a1.47,1.47,0,0,1-1.09-.43,1.43,1.43,0,0,1-.43-1.08V323.64c0-3.08-.74-5.49-2.24-7.22s-3.69-2.61-6.59-2.61a8.61,8.61,0,0,0-6.56,2.61,10,10,0,0,0-2.47,7.22V341.9a1.47,1.47,0,0,1-1.52,1.51Z"/><path class="cls-1" d="M492.07,343.41A1.47,1.47,0,0,1,491,343a1.43,1.43,0,0,1-.43-1.08v-4.75a1.47,1.47,0,0,1,.43-1.09,1.51,1.51,0,0,1,1.09-.43h4.75a1.47,1.47,0,0,1,1.51,1.52v4.75a1.47,1.47,0,0,1-1.51,1.51Z"/><path class="cls-1" d="M209.44,117.68v.25h-.2c.07-1.39.12-2.8.16-4.22C209.43,115,209.44,116.35,209.44,117.68Z"/><path class="cls-1" d="M154.56,62.91c-.94-1.11-1.85-2.23-2.75-3.39C152.77,60.61,153.68,61.74,154.56,62.91Z"/><path class="cls-1" d="M339.39,62.06q-2.76,3.33-5.74,6.46A76.72,76.72,0,0,1,339.39,62.06Z"/><path class="cls-1" d="M309,37.35c-1.63,2-3.34,3.87-5.14,5.67C305.56,41.06,307.27,39.19,309,37.35Z"/><path class="cls-1" d="M154.56,62.91c-.94-1.11-1.85-2.23-2.75-3.39C152.77,60.61,153.68,61.74,154.56,62.91Z"/><path class="cls-1" d="M339.39,62.06q-2.76,3.33-5.74,6.46A76.72,76.72,0,0,1,339.39,62.06Z"/><path class="cls-1" d="M309,37.35c-1.63,2-3.34,3.87-5.14,5.67C305.56,41.06,307.27,39.19,309,37.35Z"/><path class="cls-1" d="M309,37.35c-1.63,2-3.34,3.87-5.14,5.67C305.56,41.06,307.27,39.19,309,37.35Z"/></g></g></svg>